<?xml version="1.0" encoding="UTF-8" standalone="no"?>
<!DOCTYPE svg PUBLIC "-//W3C//DTD SVG 1.1//EN" "http://www.w3.org/Graphics/SVG/1.1/DTD/svg11.dtd">
<svg width="100%" height="100%" viewBox="0 0 111 112" version="1.1" xmlns="http://www.w3.org/2000/svg" xmlns:xlink="http://www.w3.org/1999/xlink" xml:space="preserve" xmlns:serif="http://www.serif.com/" style="fill-rule:evenodd;clip-rule:evenodd;stroke-linecap:round;stroke-linejoin:round;">
    <g transform="matrix(1,0,0,1,6,6)">
        <g id="cancel" transform="matrix(5.55556,0,0,5.55556,-16.6667,-16.6667)">
            <path d="M14,10L18.764,10C19.861,10 20.764,10.903 20.764,12C20.764,12.31 20.692,12.616 20.553,12.894L17.053,19.894C16.715,20.571 16.02,21 15.263,21L11.246,21C11.083,21 10.92,20.98 10.761,20.94L7,20M14,10L14,5C14,3.903 13.097,3 12,3L11.905,3C11.405,3 11,3.405 11,3.905C11,4.619 10.789,5.317 10.392,5.911L7,11L7,20M14,10L12,10M7,20L5,20C3.903,20 3,19.097 3,18L3,12C3,10.903 3.903,10 5,10L7.5,10" style="fill:none;fill-rule:nonzero;stroke:rgb(0,218,168);stroke-width:2px;"/>
        </g>
    </g>
</svg>
