<?xml version="1.0" encoding="UTF-8" standalone="no"?>
<!DOCTYPE svg PUBLIC "-//W3C//DTD SVG 1.1//EN" "http://www.w3.org/Graphics/SVG/1.1/DTD/svg11.dtd">
<svg width="100%" height="100%" viewBox="0 0 51 50" version="1.1" xmlns="http://www.w3.org/2000/svg" xmlns:xlink="http://www.w3.org/1999/xlink" xml:space="preserve" xmlns:serif="http://www.serif.com/" style="fill-rule:evenodd;clip-rule:evenodd;stroke-linejoin:round;stroke-miterlimit:2;">
    <g transform="matrix(1,0,0,1,-7394,-781)">
        <g transform="matrix(1,0,0,1,2214,1)">
            <g id="check" transform="matrix(3.12628,0,0,3.12628,5174.71,773.737)">
                <path d="M6.267,3.455C6.91,3.404 7.521,3.151 8.012,2.732C9.153,1.76 10.847,1.76 11.988,2.732C12.479,3.151 13.09,3.404 13.733,3.455C15.227,3.574 16.426,4.773 16.545,6.267C16.596,6.91 16.849,7.521 17.268,8.012C18.24,9.153 18.24,10.847 17.268,11.988C16.849,12.479 16.596,13.09 16.545,13.733C16.426,15.227 15.227,16.426 13.733,16.545C13.09,16.596 12.479,16.849 11.988,17.268C10.847,18.24 9.153,18.24 8.012,17.268C7.521,16.849 6.91,16.596 6.267,16.545C4.773,16.426 3.574,15.227 3.455,13.733C3.404,13.09 3.151,12.479 2.732,11.988C1.76,10.847 1.76,9.153 2.732,8.012C3.151,7.521 3.404,6.91 3.455,6.267C3.574,4.773 4.773,3.574 6.267,3.455ZM13.707,8.707C13.887,8.521 13.988,8.271 13.988,8.012C13.988,7.464 13.536,7.012 12.988,7.012C12.729,7.012 12.479,7.113 12.293,7.293L9,10.586L7.707,9.293C7.521,9.113 7.271,9.012 7.012,9.012C6.464,9.012 6.012,9.464 6.012,10.012C6.012,10.271 6.113,10.521 6.293,10.707L8.293,12.707C8.681,13.095 9.319,13.095 9.707,12.707L13.707,8.707Z" style="fill:rgb(0,218,168);"/>
            </g>
        </g>
    </g>
</svg>
