<?xml version="1.0" encoding="UTF-8" standalone="no"?>
<!DOCTYPE svg PUBLIC "-//W3C//DTD SVG 1.1//EN" "http://www.w3.org/Graphics/SVG/1.1/DTD/svg11.dtd">
<svg width="100%" height="100%" viewBox="0 0 112 90" version="1.1" xmlns="http://www.w3.org/2000/svg" xmlns:xlink="http://www.w3.org/1999/xlink" xml:space="preserve" xmlns:serif="http://www.serif.com/" style="fill-rule:evenodd;clip-rule:evenodd;stroke-linecap:round;stroke-linejoin:round;">
    <g transform="matrix(1,0,0,1,6,-5)">
        <g id="fixed_price" transform="matrix(5.55556,0,0,5.55556,-16.6667,-16.6667)">
            <path d="M17,9L17,7C17,5.903 16.097,5 15,5L5,5C3.903,5 3,5.903 3,7L3,13C3,14.097 3.903,15 5,15L7,15M9,19L19,19C20.097,19 21,18.097 21,17L21,11C21,9.903 20.097,9 19,9L9,9C7.903,9 7,9.903 7,11L7,17C7,18.097 7.903,19 9,19ZM16,14C16,15.097 15.097,16 14,16C12.903,16 12,15.097 12,14C12,12.903 12.903,12 14,12C15.097,12 16,12.903 16,14Z" style="fill:none;fill-rule:nonzero;stroke:rgb(0,218,168);stroke-width:2px;"/>
        </g>
    </g>
</svg>
