<?xml version="1.0" encoding="UTF-8" standalone="no"?>
<!DOCTYPE svg PUBLIC "-//W3C//DTD SVG 1.1//EN" "http://www.w3.org/Graphics/SVG/1.1/DTD/svg11.dtd">
<svg width="100%" height="100%" viewBox="0 0 90 112" version="1.1" xmlns="http://www.w3.org/2000/svg" xmlns:xlink="http://www.w3.org/1999/xlink" xml:space="preserve" xmlns:serif="http://www.serif.com/" style="fill-rule:evenodd;clip-rule:evenodd;stroke-linecap:round;stroke-linejoin:round;">
    <g transform="matrix(1,0,0,1,-5,6)">
        <g id="focused" transform="matrix(5.55556,0,0,5.55556,-16.6667,-16.6667)">
            <path d="M10,21L17,21C18.097,21 19,20.097 19,19L19,9.414C19,9.149 18.894,8.894 18.707,8.707L13.293,3.293C13.106,3.106 12.851,3 12.586,3L7,3C5.903,3 5,3.903 5,5L5,16M5,21L9.879,16.121M9.879,16.121C10.443,16.694 11.214,17.017 12.018,17.017C13.664,17.017 15.018,15.663 15.018,14.017C15.018,13.214 14.695,12.443 14.122,11.879C13.561,11.327 12.805,11.017 12.018,11.017C10.372,11.017 9.018,12.372 9.018,14.017C9.018,14.804 9.327,15.56 9.879,16.121Z" style="fill:none;fill-rule:nonzero;stroke:rgb(0,218,168);stroke-width:2px;"/>
        </g>
    </g>
</svg>
