<?xml version="1.0" encoding="UTF-8" standalone="no"?>
<!DOCTYPE svg PUBLIC "-//W3C//DTD SVG 1.1//EN" "http://www.w3.org/Graphics/SVG/1.1/DTD/svg11.dtd">
<svg width="100%" height="100%" viewBox="0 0 242 194" version="1.1" xmlns="http://www.w3.org/2000/svg" xmlns:xlink="http://www.w3.org/1999/xlink" xml:space="preserve" xmlns:serif="http://www.serif.com/" style="fill-rule:evenodd;clip-rule:evenodd;stroke-linecap:round;stroke-linejoin:round;stroke-miterlimit:1.5;">
    <g transform="matrix(1,0,0,1,-360,-10536)">
        <g transform="matrix(1,0,0,1,-41.4185,10093)">
            <g transform="matrix(1.21538,0,0,1.21538,73.4154,-9209.36)">
                <path d="M397,8099.25L457.386,8099.25L427.193,8061.75L366.807,8061.75L397,8099.25ZM302.193,7981.5L272,7944L417,7944L417.323,7944C444.77,7944.18 467,7966.51 467,7994C467,8021.6 444.596,8044 417,8044C417,8044 352.515,8044 352.515,8044L322.322,8006.5L417,8006.5L417.161,8006.5C423.986,8006.41 429.5,8000.85 429.5,7994C429.5,7987.1 423.899,7981.5 417,7981.5L302.193,7981.5Z" style="fill:rgb(0,218,168);stroke:rgb(0,218,168);stroke-width:3.29px;"/>
            </g>
        </g>
    </g>
</svg>
