<?xml version="1.0" encoding="UTF-8" standalone="no"?>
<!DOCTYPE svg PUBLIC "-//W3C//DTD SVG 1.1//EN" "http://www.w3.org/Graphics/SVG/1.1/DTD/svg11.dtd">
<svg width="100%" height="100%" viewBox="0 0 848 152" version="1.1" xmlns="http://www.w3.org/2000/svg" xmlns:xlink="http://www.w3.org/1999/xlink" xml:space="preserve" xmlns:serif="http://www.serif.com/" style="fill-rule:evenodd;clip-rule:evenodd;stroke-linecap:round;stroke-linejoin:round;stroke-miterlimit:1.5;">
    <g transform="matrix(1,0,0,1,-5889,-382)">
        <g transform="matrix(1,0,0,1,1113,1)">
            <g id="sweet_spot_graphic">
                <g transform="matrix(1.69767,0,0,1.69767,-5232.28,-333.14)">
                    <circle cx="5918.5" cy="477.5" r="21.5" style="fill:white;stroke:black;stroke-opacity:0.16;stroke-width:2.36px;stroke-dasharray:2.36,4.71,0,0;"/>
                </g>
                <g transform="matrix(1.69767,0,0,1.69767,-4858.69,-333.14)">
                    <circle cx="5918.5" cy="477.5" r="21.5" style="fill:white;stroke:black;stroke-width:2.36px;"/>
                </g>
                <g transform="matrix(0.856876,0,0,0.862251,788.034,76.2195)">
                    <g transform="matrix(1.69767,0,0,1.69767,-4486.34,-369.64)">
                        <circle cx="5918.5" cy="477.5" r="21.5" style="fill:white;stroke:black;stroke-width:2.36px;"/>
                    </g>
                    <g transform="matrix(1.26706,0,0,1.26706,-1886.51,-118.264)">
                        <circle cx="5918.5" cy="477.5" r="21.5" style="fill:white;stroke:black;stroke-width:3.16px;"/>
                    </g>
                    <g transform="matrix(1.1686,0,0,1.1686,-1342.41,-69.1337)">
                        <circle cx="5918.5" cy="477.5" r="21.5" style="fill:white;stroke:black;stroke-width:3.42px;"/>
                    </g>
                    <g transform="matrix(1,0,0,1,-1135.37,-12.5785)">
                        <rect x="6724.72" y="417.079" width="51.765" height="51.765" style="fill:white;stroke:black;stroke-width:4px;"/>
                    </g>
                    <g transform="matrix(0.473296,0.473296,-0.473296,0.473296,2554.46,-2915.19)">
                        <rect x="6724.72" y="417.079" width="51.765" height="51.765" style="fill:white;stroke:black;stroke-width:5.98px;"/>
                    </g>
                    <g transform="matrix(1,0,0,1,-1091.4,-12.5785)">
                        <path d="M6680.75,499.421L6701,539.921L6660.5,539.921L6680.75,499.421Z" style="fill:white;stroke:black;stroke-width:4px;"/>
                    </g>
                </g>
                <g transform="matrix(1.0241,0,0,1.0241,-1265.77,-12.533)">
                    <path d="M6338.5,478.5L6639.1,478.5" style="fill:none;stroke:black;stroke-width:4px;"/>
                </g>
                <g transform="matrix(1,0,0,0.945109,-1113,25.2653)">
                    <path d="M5964.9,478.5L6265.5,478.5" style="fill:none;stroke:black;stroke-width:4px;"/>
                </g>
                <g transform="matrix(0.8486,0,0,1.06667,-155.904,-37.6606)">
                    <path d="M6298.5,402.079C6301.13,398.329 6306.4,398.329 6309.03,400.204C6311.66,402.079 6311.66,405.829 6309.03,409.579C6307.18,412.391 6302.45,415.204 6298.5,417.079C6294.55,415.204 6289.82,412.391 6287.97,409.579C6285.34,405.829 6285.34,402.079 6287.97,400.204C6290.61,398.329 6295.87,398.329 6298.5,402.079Z"/>
                </g>
                <g transform="matrix(1,0,0,1,1.1507,-63.7204)">
                    <g transform="matrix(1,0,0,1,-1113,-1)">
                        <path d="M5927.35,452.147C5933.62,452.147 5938.71,457.234 5938.71,463.5C5938.71,469.766 5933.62,474.853 5927.35,474.853C5921.09,474.853 5916,469.766 5916,463.5C5916,457.234 5921.09,452.147 5927.35,452.147ZM5927.35,467C5928.73,467 5929.85,468.12 5929.85,469.5C5929.85,470.88 5928.73,472 5927.35,472C5925.97,472 5924.85,470.88 5924.85,469.5C5924.85,468.12 5925.97,467 5927.35,467ZM5919.34,462.753C5920.27,463.562 5921.25,463.992 5922.27,464.019C5923.28,464.046 5924.35,463.683 5925.48,462.78C5925.91,462.434 5925.98,461.804 5925.63,461.374C5925.29,460.944 5924.66,460.875 5924.23,461.22C5923.55,461.762 5922.93,462.036 5922.32,462.02C5921.74,462.004 5921.19,461.713 5920.66,461.247C5920.24,460.884 5919.61,460.926 5919.25,461.342C5918.88,461.757 5918.93,462.389 5919.34,462.753ZM5929.19,462.753C5930.12,463.562 5931.1,463.992 5932.12,464.019C5933.13,464.046 5934.21,463.683 5935.33,462.78C5935.76,462.434 5935.83,461.804 5935.49,461.374C5935.14,460.944 5934.51,460.875 5934.08,461.22C5933.4,461.762 5932.78,462.036 5932.18,462.02C5931.59,462.004 5931.04,461.713 5930.51,461.247C5930.1,460.884 5929.46,460.926 5929.1,461.342C5928.74,461.757 5928.78,462.389 5929.19,462.753Z"/>
                    </g>
                    <g transform="matrix(0.842233,0,0,0.870388,-177.94,54.4545)">
                        <path d="M5944,458.149L5946.2,458.149C5946.2,458.149 5943.15,461.201 5943.15,461.201C5942.82,461.533 5942.72,462.024 5942.91,462.448C5943.09,462.873 5943.52,463.149 5944,463.149L5949,463.149C5949.65,463.149 5950.19,462.634 5950.19,462C5950.19,461.366 5949.65,460.851 5949,460.851L5946.8,460.851C5946.8,460.851 5949.85,457.799 5949.85,457.799C5950.19,457.467 5950.28,456.976 5950.09,456.552C5949.91,456.127 5949.48,455.851 5949,455.851L5944,455.851C5943.35,455.851 5942.81,456.366 5942.81,457C5942.81,457.634 5943.35,458.149 5944,458.149Z"/>
                    </g>
                    <g transform="matrix(0.8,0,0,0.8,67.8,80.1204)">
                        <path d="M5944,458.25L5945.98,458.25C5945.98,458.25 5943.12,461.116 5943.12,461.116C5942.76,461.474 5942.65,462.011 5942.85,462.478C5943.04,462.945 5943.49,463.25 5944,463.25L5949,463.25C5949.69,463.25 5950.25,462.69 5950.25,462C5950.25,461.31 5949.69,460.75 5949,460.75L5947.02,460.75C5947.02,460.75 5949.88,457.884 5949.88,457.884C5950.24,457.526 5950.35,456.989 5950.15,456.522C5949.96,456.055 5949.51,455.75 5949,455.75L5944,455.75C5943.31,455.75 5942.75,456.31 5942.75,457C5942.75,457.69 5943.31,458.25 5944,458.25Z"/>
                    </g>
                </g>
                <g transform="matrix(1.25,0,0,1.25,5564.83,384.723)">
                    <path d="M18,9.5C18,10.323 17.323,11 16.5,11C15.677,11 15,10.323 15,9.5L15,3.5C15,2.677 15.677,2 16.5,2C17.323,2 18,2.677 18,3.5L18,9.5ZM14,9.667L14,4.237C14.001,3.48 13.572,2.786 12.895,2.447L12.845,2.422C12.289,2.144 11.676,2 11.055,2L5.64,2C4.69,2 3.864,2.676 3.678,3.608L2.478,9.608C2.452,9.737 2.439,9.868 2.439,10C2.439,11.097 3.342,12 4.439,12L8,12L8,16C8,17.097 8.903,18 10,18C10.549,18 11,17.549 11,17L11,16.333C11,15.468 11.281,14.625 11.8,13.933L13.2,12.067C13.719,11.375 14,10.532 14,9.667Z" style="fill-rule:nonzero;"/>
                </g>
            </g>
        </g>
    </g>
</svg>
